<svg width="61" height="61" viewBox="0 0 61 61" fill="none" xmlns="http://www.w3.org/2000/svg">
<path d="M30.5003 58.9652C36.109 58.9652 40.6558 56.8678 40.6558 54.2806C40.6558 51.6933 36.109 49.5959 30.5003 49.5959C24.8915 49.5959 20.3447 51.6933 20.3447 54.2806C20.3447 56.8678 24.8915 58.9652 30.5003 58.9652Z" fill="#D44A28"/>
<path d="M47.4319 41.199C47.4319 48.2425 39.8498 55.9057 30.4996 55.9057C21.1495 55.9057 13.5674 48.2425 13.5674 41.199C13.5674 34.1554 47.4319 34.1554 47.4319 41.199Z" fill="#ED603A"/>
<path d="M30.5004 44.9735C39.7466 44.9735 47.2421 42.7715 47.2421 40.0553C47.2421 37.3391 39.7466 35.1372 30.5004 35.1372C21.2543 35.1372 13.7588 37.3391 13.7588 40.0553C13.7588 42.7715 21.2543 44.9735 30.5004 44.9735Z" fill="#FF8A65"/>
<path d="M44.6591 39.7213C44.6591 41.2796 39.3502 43.0048 30.5005 43.0048C21.7937 43.0048 16.3418 41.2796 16.3418 39.7213C16.3418 38.1629 22.6801 36.3091 30.5005 36.3091C38.3209 36.3091 44.6591 38.1677 44.6591 39.7213Z" fill="#5D4037"/>
<path opacity="0.18" d="M47.2222 40.2746C47.2318 40.2031 47.2413 40.1268 47.2413 40.0553C47.2413 37.3389 39.745 35.1372 30.4996 35.1372C21.2543 35.1372 13.758 37.3389 13.758 40.0553C13.758 40.1268 13.7675 40.2031 13.7771 40.2746C13.6389 40.57 13.5674 40.8798 13.5674 41.1991C13.5674 44.4349 15.059 47.4706 17.2893 49.944C17.6086 50.2967 21.8357 49.2959 24.5569 47.6803C29.7753 44.5874 33.9357 42.9052 33.9357 42.9052C33.9357 42.9052 31.9675 42.9957 30.4949 42.9957C21.7881 42.9957 16.3362 41.2706 16.3362 39.7122C16.3362 38.1538 22.6745 36.3 30.4949 36.3C38.3153 36.3 44.6536 38.1538 44.6536 39.7122C44.6536 40.8178 41.9705 42.0092 37.2478 42.6049C37.6862 42.6002 38.382 42.6621 39.2207 42.9957C41.7799 44.006 45.2207 48.338 46.1452 46.3603C46.9506 44.6303 47.4271 43.1768 47.4271 41.1895C47.4319 40.875 47.3557 40.5653 47.2222 40.2746Z" fill="#212121"/>
<path d="M40.7884 22.2695C40.8075 22.1313 40.8885 21.4403 39.8258 21.2401C38.763 21.04 37.9147 21.121 37.9147 21.121L37.3095 19.4006C37.7718 17.8375 38.539 17.1083 37.8862 15.4976C37.7337 15.1258 36.9187 14.9066 36.2468 15.0972C36.2468 15.0972 35.5796 15.0782 35.0029 15.4833C34.5073 15.8359 32.42 17.5992 32.0626 16.5651C31.9148 16.1362 32.1293 15.8788 33.0395 15.2259C33.8544 14.6445 34.7599 14.1537 35.4747 13.4483C36.6995 12.2331 35.9275 10.527 35.9275 10.527C35.9275 10.527 34.9553 10.1601 34.1785 10.751C33.5876 11.199 33.1253 11.4563 32.8489 11.6422C31.5002 12.5476 31.4144 11.2323 32.2722 10.7224L33.864 9.65014C35.5033 8.51115 34.7694 6.67162 34.7694 6.67162C34.7694 6.67162 34.2976 6.52389 33.6781 6.94803C33.4589 7.10053 33.2254 7.30545 32.8822 7.47225C32.3771 7.71529 32.034 7.84396 31.8386 7.49607C31.7051 7.25779 31.9482 6.96709 32.4152 6.6335C32.949 6.25701 33.2397 6.19506 33.6114 5.66607C34.188 4.85115 34.0355 3.82178 33.883 3.60256C33.7353 3.38811 32.5868 4.65576 32.3771 4.16967C32.2151 3.79318 32.7297 3.10693 32.1817 2.13475C31.7719 1.41037 31.0046 1.08154 31.0046 1.08154C30.4184 1.86311 30.3469 3.18318 30.8378 4.041C31.138 4.56521 31.4812 5.03701 31.1714 5.32295C30.9522 5.52311 30.671 5.2467 30.2135 4.94647C29.5225 4.4985 28.6122 4.85115 28.6122 4.85115C28.6122 4.85115 28.2072 6.0235 28.8315 6.80029C29.2842 7.3674 29.6512 7.58186 30.3517 8.17279C31.0999 8.80186 30.6567 9.5167 29.7703 9.0449C29.4605 8.87811 29.0269 8.53498 28.5455 8.32529C27.8307 8.01076 26.8013 8.49209 26.8013 8.49209C26.8013 8.49209 26.4153 10.2506 27.397 10.8749C27.7306 11.0894 29.1222 12.0187 29.594 12.2617C30.5709 12.7669 30.3374 14.0012 29.2413 13.4817C28.4597 13.11 27.6258 12.4857 26.7632 12.1092C25.6194 11.6088 24.8522 12.1426 24.8522 12.1426C24.8522 12.1426 24.509 13.6771 25.3907 14.5349C25.9721 15.102 27.3827 16.0265 27.9403 16.3601C28.4788 16.6794 29.3176 17.0321 29.1269 17.4276C28.6075 18.5142 26.9347 17.7183 26.1865 17.2942C24.8617 16.5412 23.4654 16.0075 22.679 16.6222C21.8879 17.2418 22.4646 19.129 22.436 19.9582C22.3693 21.7977 23.9229 21.874 24.4662 23.4133C24.571 23.7135 24.5472 24.0471 24.5281 24.3664C24.3994 26.468 24.571 28.5935 25.0285 30.6475C25.0809 30.881 25.1476 31.1336 25.3287 31.2861C25.5051 31.4386 25.7576 31.4672 25.9912 31.4862C28.3787 31.6959 30.7806 31.8008 33.1777 31.8008C34.9887 31.8008 36.8425 31.7293 38.5152 31.0383C38.8202 30.9096 39.1395 30.7476 39.3063 30.4616C39.454 30.2138 38.2817 26.9732 38.4676 26.754C39.5589 25.4625 40.574 23.7135 40.7884 22.2695Z" fill="url(#paint0_linear_405_163)"/>
<path d="M57.6641 18.8293C57.3829 18.7959 57.1923 18.8483 57.3305 18.5433C57.502 18.1573 57.5449 18.0191 57.6116 17.7523C57.7737 17.0755 57.5163 16.6228 57.5163 16.6228C57.5163 16.6228 56.6013 16.7276 56.1819 17.5759C55.9627 18.0191 55.6482 19.1057 55.1192 18.7244C54.9 18.5624 55.0954 18.2955 55.124 17.8571C55.1907 16.9278 54.4616 16.7419 54.4616 16.7419C54.4616 16.7419 53.5609 17.0041 53.3226 17.8285C53.1224 18.5291 53.0748 18.9103 52.9651 19.5537C52.8603 20.1732 52.9318 20.4782 52.4886 20.5926C52.1073 20.6926 51.8881 20.4019 51.9358 19.9349C51.9977 19.2677 52.0025 18.6911 52.0025 18.6911C52.1407 17.6569 51.0827 17.4901 51.0827 17.4901C51.0827 17.4901 49.9771 17.5855 49.6816 18.8102C49.5196 19.4917 49.4767 19.7681 49.329 20.6879C49.2575 21.1263 49.2527 21.6839 48.8715 22.0175C48.4664 22.3701 47.9946 22.0556 48.0089 21.2931C48.0184 20.7308 48.0804 20.3829 48.0423 19.5537C48.0041 18.7244 47.113 18.672 47.113 18.672C47.113 18.672 45.7357 19.263 45.6833 20.6831C45.6451 21.6744 45.6213 23.2994 45.6499 23.7617C45.6499 23.7617 45.7881 24.6195 45.1162 24.8816C44.7063 25.0341 44.2345 24.7768 44.2107 24.0286C44.1773 23.0326 44.2059 22.9325 44.1487 21.6696C44.0963 20.4877 43.1337 20.1494 43.1337 20.1494C43.1337 20.1494 41.6706 20.3114 41.3894 21.722C41.2226 22.5465 41.2369 26.1541 40.0455 26.1159C38.6635 26.0683 35.8708 23.0421 34.9177 26.4781C34.7557 27.0548 34.4173 27.5837 33.9312 27.9316C33.2974 28.3939 32.4968 28.5369 31.7391 28.7513C29.2371 29.4566 27.0592 31.1055 25.5628 33.2119C24.7717 34.3271 22.1935 39.0975 23.7042 40.2031C24.2427 40.5987 26.0108 40.4557 26.7399 40.4557C28.3555 40.4605 29.9662 40.4652 31.5818 40.4652C33.936 40.47 36.2855 40.4748 38.6397 40.4843C38.7255 39.9887 38.7445 39.5073 38.7159 39.0355L39.3498 39.0403L43.9152 39.2166C43.9152 39.2166 44.8445 37.4533 45.6976 37.0721C45.8119 37.0197 47.4847 35.7854 47.4323 35.671C46.7651 34.1937 43.0193 32.7783 43.0193 32.7783C43.6245 32.7306 44.5109 32.0444 46.1312 32.9212C48.0613 33.9649 49.2432 33.4883 49.2432 33.4883C49.2432 33.4883 49.6721 32.845 48.414 31.239C47.7563 30.3955 44.8541 28.9086 44.8541 28.9086C44.5395 28.6941 43.7055 28.4797 44.0963 27.8649C44.3632 27.4408 45.4879 27.8077 46.4744 28.3462C47.3083 28.8037 47.1654 28.8562 49.0335 29.8903C50.1963 30.5337 51.8023 29.8903 51.8023 29.8903C51.8023 29.8903 51.8881 28.4368 50.873 27.5123C50.0152 26.7307 48.0423 25.5488 48.0423 25.5488C47.5848 25.158 47.5133 24.8435 47.885 24.6386C48.4235 24.3479 49.0716 24.753 49.6816 25.0627C50.2916 25.3725 51.9644 26.1922 51.9644 26.1922C52.908 26.7069 54.3615 26.5448 54.3615 26.5448C54.3615 26.5448 54.6855 25.382 54.2233 24.8292C53.5561 24.0286 51.6355 23.1755 51.6355 23.1755C51.1542 22.8229 51.0303 22.6084 51.3019 22.3177C51.5736 22.0318 51.8214 22.0366 52.6268 22.413C53.4751 22.8133 54.1327 23.1374 54.8952 23.3852C55.6577 23.633 57.0588 23.1612 57.0588 23.1612C57.0588 23.1612 57.0159 22.0794 56.3011 21.6029C55.7483 21.2359 55.0811 20.9691 55.0811 20.9691C54.7094 20.8404 54.4187 20.5449 54.6045 20.197C54.8237 19.7967 55.672 20.1398 56.2105 20.2447C56.9969 20.3972 57.4258 20.4353 58.2407 20.1398C58.7744 19.9444 59.0747 19.3964 59.0747 19.3964C59.0747 19.3964 59.008 18.9961 57.6641 18.8293Z" fill="url(#paint1_radial_405_163)"/>
<path d="M39.4311 29.5706C38.721 28.9606 37.7583 28.6317 36.8243 28.7366C36.3572 28.789 35.8902 28.9367 35.4184 28.8986C34.9466 28.8557 34.4462 28.5364 34.4224 28.0646C34.4081 27.7549 34.594 27.4785 34.756 27.2164C35.1801 26.5301 35.4899 25.7104 35.2993 24.9289C35.1086 24.1473 34.2461 23.5039 33.4931 23.7899C32.7783 24.0615 32.5447 24.9336 32.3017 25.658C31.9729 26.6445 31.4534 27.569 30.7862 28.3696C30.4955 28.7175 30.0666 29.075 29.6329 28.9368C29.0086 28.7461 30.2906 25.1957 28.9276 22.2792C28.5178 21.4071 28.1747 20.616 27.8411 20.616C27.2644 20.616 27.0738 22.5746 26.9118 23.2847C26.7688 23.9185 26.4447 25.1338 25.83 25.2196C25.4201 25.2767 24.9197 24.6191 24.7911 24.3617C24.3622 23.5135 23.5472 21.388 22.6322 20.9019C21.9317 20.535 21.1025 21.0353 21.1025 22.2077C21.1025 22.6032 21.9508 25.2291 22.494 26.6874C22.6656 27.1496 21.7506 27.488 21.2979 26.6254C21.2979 26.6254 19.9015 24.295 19.3535 23.5087C18.5338 22.3268 17.0469 22.5413 17.0469 22.5413C17.0469 22.5413 16.4465 23.5182 16.9468 24.9432C17.3615 26.1346 17.3186 25.82 17.6807 26.7493C17.9572 27.4499 17.6236 27.8692 17.1899 27.8931C16.4703 27.9169 16.2558 27.0782 16.2558 27.0782C16.0986 26.6445 15.4314 25.1624 15.0025 24.2712C14.3877 22.9892 12.8913 22.994 12.8913 22.994C12.8913 22.994 12.0907 23.3943 12.3861 24.1711C12.6816 24.9479 12.877 25.2434 13.1105 25.7533C13.4298 26.4491 13.12 26.9257 12.6101 26.7636C12.1336 26.6111 11.9048 26.1012 11.6618 25.7247C11.1614 24.9384 11.0136 24.7049 10.5895 24.1473C9.83653 23.1417 8.77856 23.4896 8.77856 23.4896C8.77856 23.4896 7.87309 24.0663 8.41161 24.9575C8.41161 24.9575 8.64513 25.4817 8.96919 26.0726C9.19317 26.4825 9.11216 26.8351 8.72138 26.8971C8.26864 26.9685 8.21622 26.6588 7.87309 26.1346C7.51567 25.5913 7.32028 25.2577 6.85802 24.6953C6.30997 24.0329 5.38067 24.1521 5.38067 24.1521C5.38067 24.1521 4.78973 24.6096 5.21864 25.4388C5.4188 25.8296 5.7095 25.9964 5.5713 26.2299C5.24247 26.7922 4.51809 25.9201 4.14161 25.6008C3.41723 24.9908 2.53559 25.2577 2.53559 25.2577C2.53559 25.2577 2.47841 25.7819 2.89778 26.3347C3.06458 26.5539 3.15989 26.6635 3.46966 26.9495C3.71747 27.1782 3.52208 27.2021 3.27903 27.345C2.11145 28.0313 2.2163 28.4221 2.2163 28.4221C2.2163 28.4221 2.70716 28.8033 3.27427 28.7747C4.14161 28.7271 4.51809 28.5174 5.18052 28.0646C5.63325 27.7549 6.27661 27.0972 6.63403 27.3832C6.9438 27.6262 6.79606 28.017 6.50536 28.2839C6.50536 28.2839 6.0002 28.7938 5.63802 29.3514C5.17098 30.071 5.56177 31.0813 5.56177 31.0813C5.56177 31.0813 7.03911 30.9478 7.63481 30.4236C8.23528 29.8946 8.70708 29.3323 9.32661 28.6318C9.91755 27.9646 10.1415 27.8597 10.5037 28.017C10.8659 28.1695 10.8373 28.4173 10.5371 28.9368C10.5371 28.9368 9.11216 30.4856 8.81669 31.4864C8.61177 32.1774 9.37427 33.1162 9.37427 33.1162C9.37427 33.1162 10.7706 32.6873 11.433 31.839C11.433 31.839 12.6435 30.4189 13.0772 29.8946C13.5156 29.3704 13.9493 28.7366 14.5593 28.7938C14.9786 28.8319 15.0406 29.1512 14.7785 29.6897C14.7785 29.6897 13.4393 31.5578 12.9628 32.6158C12.4004 33.8644 13.0533 35.1654 13.0533 35.1654C13.0533 35.1654 14.788 35.113 15.5934 34.0646C16.8944 32.368 16.7419 32.3775 17.3281 31.6293C18.0191 30.7429 18.9055 29.9566 19.3154 30.2378C19.9206 30.6524 19.2391 31.1766 19.0342 31.5007C19.0342 31.5007 17.0707 34.055 16.6943 35.0558C16.1367 36.5284 16.7562 38.1249 16.7562 38.1249C16.7562 38.1249 18.4718 37.9819 19.83 36.3711C20.0683 36.09 20.2732 35.8374 20.4639 35.6086L21.5409 36.3282C21.031 37.2289 20.6545 38.1535 20.2971 39.2782C21.1644 38.9875 25.2915 40.4505 25.2915 40.4505L38.6352 40.4839C38.721 39.9882 38.7401 39.5069 38.7115 39.0351L39.3453 39.0399L43.9108 39.2162C43.9108 39.2162 44.84 37.4529 45.6931 37.0717C45.8075 37.0193 45.8408 36.881 45.7598 36.7857C45.0259 35.9565 44.149 34.9462 43.153 34.422C42.2904 33.9693 41.385 34.1218 40.9132 33.04C40.4175 31.9105 40.5891 30.762 39.6836 29.8136C39.6074 29.7278 39.5216 29.6468 39.4311 29.5706Z" fill="url(#paint2_radial_405_163)"/>
<path d="M35.718 27.221C35.2033 26.9398 35.0031 26.5443 35.3749 26.2488C35.5417 26.1154 36.1993 26.3823 37.4098 26.7111C38.9729 27.1352 39.907 27.4021 40.8935 27.3592C42.8903 27.2782 43.1762 25.5483 43.1762 25.5483C43.1762 25.5483 42.9331 24.8191 41.0746 24.6905C40.3549 24.6428 39.0682 24.3759 38.0389 24.0805C37.0857 23.8088 36.2899 23.2941 36.7664 22.8319C37.0524 22.5555 37.6385 22.8128 38.2914 22.9272C39.7211 23.1798 40.8887 23.4609 41.7894 23.4848C43.6861 23.5372 44.3342 22.3362 44.3342 22.3362C44.3342 22.3362 44.0864 21.2211 42.6234 20.8589C41.8418 20.6635 40.984 20.5396 39.4161 20.206C38.5059 20.0154 38.5631 19.7342 38.8347 19.4912C39.2017 19.1623 39.9546 19.2433 40.4169 19.2815C41.5321 19.3816 42.9284 19.7151 43.6956 19.7628C45.0205 19.8438 45.7067 18.8526 45.7067 18.8526C45.7067 18.8526 45.6591 17.7231 44.3724 17.318C43.1524 16.932 42.8617 17.0941 41.9038 16.7414C41.2938 16.5174 41.0793 16.2601 41.3224 16.0408C41.5464 15.8407 42.0277 15.8359 42.957 15.9122C44.2008 16.0123 45.1682 16.2315 46.1118 16.3173C47.7369 16.465 48.2039 15.4308 48.2039 15.4308C48.2039 15.4308 48.0562 14.5492 46.9029 14.1966C46.3501 14.025 45.7449 13.963 44.7965 13.6866C44.4153 13.577 44.3533 13.3673 44.5106 13.1195C44.6678 12.8765 45.1015 12.8241 45.7115 12.886C46.7695 12.9956 47.146 13.0862 47.8894 13.2005C49.3667 13.4341 50.1054 12.7859 50.1054 12.7859C50.1054 12.7859 50.2817 11.9043 49.4382 11.6041C48.6614 11.3276 48.1229 11.3038 47.5606 11.1561C46.9982 11.0083 47.0649 10.7701 47.2508 10.6366C47.8894 10.1744 49.8052 10.8987 50.4628 10.9702C51.5828 11.0941 52.1928 10.4365 52.1928 10.4365C52.1928 10.4365 52.3643 9.61202 51.5542 9.33085C50.906 9.10686 50.3103 9.08303 50.663 8.75897C50.8346 8.60171 51.4303 8.54929 51.74 8.57311C52.6836 8.63983 53.0458 8.73991 53.4985 8.62077C53.9227 8.51116 54.485 8.10132 54.7996 7.79155C54.1133 7.33882 53.3222 7.21014 52.5216 7.08624C51.6304 6.94803 51.13 7.96311 50.6868 7.82014C50.4676 7.74866 50.9585 6.98139 50.4533 7.03382C50.1531 7.06718 49.5049 7.22444 49.2524 7.94882C49.0284 8.58741 48.9855 9.531 48.3374 9.40233C47.9371 9.32608 48.0991 8.87335 48.1563 8.55405C48.3135 7.69624 47.9418 7.5628 47.9418 7.5628C47.9418 7.5628 46.6122 7.53897 46.1642 8.9353C45.926 9.67397 45.7925 10.9655 45.1825 10.9464C44.6631 10.9321 44.868 10.3364 44.8585 9.81694C44.8442 8.98772 44.0769 8.88764 44.0769 8.88764C44.0769 8.88764 42.8045 9.14022 42.733 10.2125C42.7044 10.6223 42.6853 11.3991 42.6853 12.3094C42.6853 13.0862 42.4899 13.7009 42.1945 13.8344C41.6226 14.0965 41.6035 13.3626 41.5559 12.6001C41.5082 11.8423 41.5321 11.4087 41.4129 11.0798C41.2366 10.6033 40.2596 10.6462 40.2596 10.6462C40.2596 10.6462 39.1921 11.4516 39.235 12.3284C39.2684 13.0147 39.378 14.0393 39.4495 14.4491C39.5734 15.1687 39.5639 16.1457 39.1397 16.5269C38.7251 16.8987 38.4296 15.7454 38.1151 14.0298C37.8339 12.4857 36.6521 12.6811 36.6521 12.6811C36.6521 12.6811 35.5226 13.5294 35.6989 14.8637C35.8276 15.855 36.0421 16.5746 36.2231 17.1655C36.6711 18.6333 36.7426 19.1623 36.6044 19.4959C36.0516 20.8303 35.3749 18.5952 34.7744 16.77C34.3598 15.5071 33.2446 15.6548 33.2446 15.6548C33.2446 15.6548 32.2629 16.5841 32.4821 17.7326C32.8443 19.6437 33.4829 20.7207 33.8975 21.426C34.6696 22.7508 34.8316 23.337 34.6886 23.6849C34.5314 24.0614 33.8117 23.6801 33.2494 22.7508C32.6489 21.7453 32.3821 21.1401 31.9531 19.9058C31.5862 18.8573 31.1716 18.9908 31.1716 18.9908C31.1716 18.9908 30.2614 20.2918 30.7093 21.7501C31.6053 24.6571 33.3876 26.0868 33.5544 26.2488C33.9547 26.6301 33.4019 26.6587 32.6156 26.2917C31.7578 25.8914 30.5806 23.7135 30.5806 23.7135C30.5806 23.7135 30.2232 24.862 30.8999 26.3584C31.6863 28.0931 32.8634 28.3028 33.5925 28.4839C34.4456 28.6984 34.7601 28.5649 35.189 29.0891C36.9713 31.2908 39.5591 30.943 39.9928 30.943C42.1039 30.943 42.3374 29.4656 42.3374 29.4656C42.3374 29.4656 42.0229 28.7984 40.6409 28.5601C40.0928 28.4648 39.5162 28.522 37.7434 28.0073C37.1334 27.8405 36.3042 27.5403 35.718 27.221Z" fill="#73B03E"/>
<path d="M28.3697 17.1562C28.3697 17.1562 27.2403 17.6233 27.0878 18.5383C26.9019 19.4676 26.8638 22.2126 26.3777 23.2943C26.0584 23.9997 25.4961 23.5565 25.7153 22.4079C25.9964 20.9497 26.3348 19.0911 26.1108 17.5518C25.925 16.2841 24.8479 15.4883 24.8479 15.4883C24.8479 15.4883 23.7661 15.6408 23.6518 16.3079C23.4611 17.4279 23.5183 18.4143 23.4516 19.1673C23.4039 19.6915 23.4087 20.6304 22.7463 20.454C22.3221 20.3444 22.4413 19.0672 22.4556 18.6812C22.4842 17.7805 22.6462 17.3564 22.6319 15.6455C22.6176 14.2683 21.1355 13.5153 21.1355 13.5153C21.1355 13.5153 20.2825 13.7393 20.149 14.578C19.9489 15.8552 20.0823 17.2611 19.3055 17.018C18.8004 16.8608 19.1911 14.8401 19.0482 13.7822C18.9052 12.6956 17.9282 12.057 17.9282 12.057C17.9282 12.057 16.9989 12.0808 16.9275 13.0626C16.8655 13.9585 16.9989 15.2261 16.1983 15.2547C15.4072 15.2833 15.8171 13.9299 15.5883 12.3715C15.4215 11.2373 14.1586 10.7941 14.1586 10.7941C14.1586 10.7941 13.1626 10.9514 13.1721 11.752C13.1769 12.057 13.1197 12.8576 12.6193 12.7528C12.1666 12.6575 11.976 12.0093 11.8664 11.6376C11.7282 11.1801 11.6186 10.8704 11.2564 10.5225C10.837 10.1174 9.63605 9.74091 9.59316 9.75997C9.52168 9.79333 9.41684 10.7798 9.56457 11.1706C9.78379 11.7615 10.1889 12.0808 10.5463 12.5622C10.999 13.1674 10.2937 13.0625 9.80762 13.3675C9.23098 13.7297 9.09277 14.3826 9.09277 14.3826C9.09277 14.3826 9.75996 14.9497 10.4414 14.9974C11.0896 15.0451 11.6948 14.8449 12.2857 14.6686C13.0482 14.4351 13.7821 14.254 14.0252 14.6114C14.3969 15.1499 13.1293 15.1833 12.2333 15.9172C11.6757 16.3747 11.6186 17.1467 11.6186 17.1467C11.6186 17.1467 13.0149 18.0617 13.7154 17.8139C15.0736 17.3278 15.555 16.9227 16.2079 16.713C16.9561 16.47 17.79 16.856 16.9275 17.4612C16.3079 17.8997 15.5454 18.3238 15.045 18.829C14.4303 19.4437 14.4827 20.2586 14.4827 20.2586C14.4827 20.2586 15.4882 21.0164 16.327 20.8258C17.709 20.5112 18.5668 19.844 19.3007 19.4961C20.1824 19.0815 20.5446 19.1864 20.8448 19.4294C21.1689 19.6963 20.5493 19.9632 19.7773 20.3587C18.8861 20.8162 17.9044 21.6264 17.5375 22.0219C17.0609 22.5366 17.1086 24.3571 17.1086 24.3571C17.1086 24.3571 18.605 24.9099 19.8536 24.3333C21.1689 23.728 22.5509 22.3412 23.1371 22.5509C24.0425 22.8702 23.3563 23.3801 22.0648 24.419C21.0831 25.2101 20.23 25.782 19.6153 26.4683C19.0386 27.1116 19.072 28.7605 19.072 28.7605C19.072 28.7605 19.825 29.2085 20.9401 29.1132C22.3698 28.994 24.2141 26.5636 24.9146 25.9107C25.3721 25.4865 25.8011 26.0489 25.0195 27.4976C23.8138 29.7375 23.2514 29.7279 22.6462 31.4483C22.1792 32.7875 22.9655 34.079 22.9655 34.079C22.9655 34.079 24.1998 34.3935 25.0386 33.8026C25.7057 33.3355 26.1871 32.4253 26.6684 31.1243C26.7828 30.8193 27.0115 30.0854 26.9877 28.1791C26.9734 26.7637 26.7161 27.1402 27.4547 25.8726C29.1799 22.9131 29.6898 21.574 29.4515 19.3341C29.3133 17.9807 28.3697 17.1562 28.3697 17.1562Z" fill="#73B03E"/>
<path d="M35.4041 30.8051C35.4041 30.8051 32.9116 31.539 32.0824 32.2538C31.2532 32.9734 30.3287 34.2411 29.3374 34.5985C28.3462 34.9559 27.6504 34.8701 27.6504 34.8701C27.6504 34.8701 28.2223 32.616 29.7568 31.5199C31.3056 30.4095 33.6312 29.9282 35.4041 30.8051Z" fill="#A1D65C"/>
<path d="M21.1074 36.6431H44.6591V40.7892H21.1074V36.6431Z" fill="url(#paint3_linear_405_163)"/>
<path d="M53.5274 50.554C53.637 50.1632 53.5798 49.6437 53.5941 48.8574C53.6037 48.3999 53.8705 48.3904 54.6473 49.1767C54.9905 49.5246 55.6243 49.5818 55.6243 49.5818C55.7005 48.1235 55.0715 47.6946 54.0659 47.1275C53.1795 46.6319 52.3169 46.4508 52.7125 45.898C52.8412 45.7169 53.4369 46.0076 53.7419 46.1267C55.5385 46.8368 55.6958 46.2887 55.6958 46.2887C55.6958 46.2887 55.5766 44.8972 53.7562 44.2586C52.8793 43.9536 51.3876 43.7344 51.4067 43.2912C51.4258 42.7098 52.255 42.929 52.7411 43.0481C55.2001 43.6391 55.4241 43.2626 55.4241 43.2626C55.4241 43.2626 54.9237 41.2467 52.6076 40.8464C51.4639 40.651 49.4242 40.4699 49.3241 39.9266C49.2193 39.35 51.4401 39.6788 52.3265 39.8218C53.5608 40.0219 53.9182 39.7026 53.9182 39.7026C53.9182 39.7026 53.3844 37.8202 50.7729 37.5962C48.8476 37.4342 47.5942 37.6916 47.2844 37.2055C47.008 36.7623 48.7856 36.6526 50.5012 36.7813C51.8499 36.8814 52.5791 36.848 52.5791 36.848C52.5791 36.848 52.0644 34.937 49.2383 34.7416C46.4266 34.5462 43.8341 35.2897 44.1582 34.7369C44.5013 34.1555 45.6308 34.0649 47.0605 33.9934C47.7896 33.9601 48.6903 33.9839 49.1669 33.9219C50.282 33.779 50.6251 33.3262 50.6251 33.3262C50.6251 33.3262 49.4433 32.2159 47.7276 31.9156C46.2169 31.6535 44.9493 31.8632 43.1717 32.2826C42.1948 32.5113 41.0224 32.8449 40.6936 32.5685C40.4791 32.3922 41.3131 31.8775 42.1995 31.663C42.9334 31.4867 44.3393 31.3533 45.321 31.2723C45.9405 31.2246 46.3408 31.0197 46.3408 31.0197C46.3408 31.0197 46.0835 30.81 45.6212 30.5765C44.7634 30.1428 43.3051 29.7568 41.8898 30.0427C41.0367 30.2143 40.3933 30.3716 39.7166 30.891C39.0208 31.4248 38.6253 31.9204 37.777 31.8918C36.9287 31.868 36.4426 31.5201 34.9176 32.03C34.2552 32.254 32.9209 33.2166 31.8676 34.4319C30.7716 35.6995 31.0003 36.8814 31.0003 36.8814C31.0003 36.8814 32.1536 37.2245 33.3164 36.5764C34.951 35.6662 36.9049 33.0546 37.7389 33.1499C38.7349 33.2643 37.3576 34.2651 36.7095 34.9609C35.2465 36.524 34.565 37.9155 34.3696 39.0879C34.1933 40.1506 34.6126 40.6653 34.6126 40.6653C34.6126 40.6653 36.1043 40.4509 36.7429 39.5692C37.6674 38.2873 38.6539 37.0816 39.2973 36.1904C40.0883 35.0943 40.5458 34.7369 40.9462 34.5653C41.7277 34.2317 42.352 34.4605 41.2226 35.7519C39.8739 37.2912 38.7206 38.9783 38.4204 40.1649C38.1297 41.3039 38.692 42.2713 38.692 42.2713C38.692 42.2713 40.0741 41.79 40.6841 41.0084C41.9041 39.4405 42.3091 38.5398 42.9668 37.5629C43.4815 36.7956 44.0772 36.1809 44.6586 36.3476C45.2829 36.5287 44.6348 37.2817 43.8627 38.4255C43.2051 39.3929 42.4616 40.794 42.2567 41.8186C41.9851 43.1911 42.3997 43.8583 42.3997 43.8583C42.3997 43.8583 44.0581 43.5914 44.549 42.8384C44.9731 42.1951 45.7642 40.5605 46.317 39.798C46.7745 39.1641 47.1796 38.3587 47.7419 38.6923C48.0374 38.8687 47.7467 39.5358 47.1224 40.5509C46.6411 41.3325 46.093 42.3666 45.8309 43.234C45.5593 44.1299 45.9453 45.1212 45.9453 45.1212C45.9453 45.1212 47.3035 45.1831 47.8563 44.1299C48.3186 43.253 48.7284 42.5096 49.062 41.9759C49.7769 40.8369 50.2153 41.6327 49.6816 42.6335C49.1144 43.6962 48.7189 44.4063 48.4425 45.4405C48.2709 46.0838 48.5855 46.9464 48.5855 46.9464C48.5855 46.9464 49.4385 47.0036 49.9246 46.3841C50.7776 45.2975 50.7538 44.5064 51.2542 44.9544C51.6116 45.2784 50.7872 46.4174 50.3392 47.2466C49.8912 48.0806 50.0914 49.0433 50.0914 49.0433C50.0914 49.0433 51.1446 49.415 51.6021 48.4952C52.4313 46.8368 52.8173 47.4801 52.5933 48.2331C52.5219 48.4809 52.1835 49.5723 52.112 49.8248C51.7165 51.164 52.4551 51.7358 52.4551 51.7358C52.4551 51.7358 53.2701 51.4594 53.5274 50.554Z" fill="#A1D65C"/>
<path d="M10.618 51.9735C10.4845 51.7114 10.1843 51.1157 10.6323 50.8822C11.1422 50.6106 11.3328 51.4445 11.7998 51.9354C12.5957 52.7646 13.3105 52.3834 13.3105 52.3834C13.3105 52.3834 13.8443 51.6209 13.3963 50.5343C12.9627 49.4859 12.0286 48.7567 12.4051 48.2611C12.6148 47.9847 13.22 47.775 14.0349 49.3238C14.7879 50.7535 15.9841 50.4867 15.9841 50.4867C15.9841 50.4867 16.8133 49.4716 16.2176 47.9275C15.803 46.86 14.9404 45.9307 15.1263 45.4113C15.3502 44.7822 15.903 44.806 16.4416 45.7401C16.7799 46.3215 17.1183 47.0363 17.5472 47.6082C18.3764 48.7234 19.5583 48.6376 19.5583 48.6376C19.5583 48.6376 20.173 47.5892 19.6917 46.0594C19.4487 45.2874 19.1961 44.6678 18.629 43.5813C18.3478 43.0475 17.8474 42.3136 18.2287 41.8704C18.5956 41.4463 19.1246 41.98 19.5583 42.6329C20.5924 44.1913 20.6305 44.6488 21.1548 45.478C21.922 46.6837 23.5709 46.636 23.5709 46.636C23.5709 46.636 24.1952 45.4113 23.9522 44.196C23.652 42.7187 23.2945 41.6607 22.4415 40.3216C22.0602 39.7259 21.6266 38.9586 21.9745 38.7251C22.308 38.5059 22.8227 38.7394 23.4375 39.6735C24.2715 40.9363 24.9196 42.1659 25.501 43.2143C26.1825 44.4438 27.8457 44.644 27.8457 44.644C27.8457 44.644 28.5129 43.9339 27.9267 41.7608C27.4788 40.1024 26.8592 39.0587 26.4541 38.3105C25.9538 37.3955 25.0816 36.7855 25.6392 36.5329C26.1539 36.2994 26.8306 36.9046 27.5693 38.0627C28.3318 39.2588 28.5224 40.1691 29.4136 41.4034C30.1427 42.4185 31.8536 42.2612 31.8536 42.2612C31.8536 42.2612 32.0919 41.289 31.906 40.3406C31.7154 39.3542 31.1102 38.2152 30.157 37.1238C28.0268 34.6838 26.6686 35.6942 26.5352 35.2367C26.4732 35.0222 26.5923 34.3645 26.0681 33.4591C25.3152 32.1628 23.4756 30.9428 21.3978 30.9619C20.5638 30.9714 19.0722 31.2288 18.405 31.6958C18.405 31.6958 18.4812 32.4249 19.382 32.8205C20.4447 33.2923 22.5749 33.7069 23.4804 34.5456C24.0809 35.0985 24.4573 35.7466 23.814 35.4845C23.5471 35.3749 22.6369 34.7315 21.6838 34.3931C20.6877 34.0405 19.6822 33.888 18.486 33.8499C16.6989 33.7927 15.3073 34.5361 15.3073 34.5361C15.3073 34.5361 15.4027 34.9936 16.4559 35.5321C17.0897 35.8562 19.0484 36.1469 19.7966 36.5138C20.4113 36.8141 20.9594 37.0285 20.6115 37.3764C20.3923 37.5956 20.0491 37.5242 19.7632 37.4145C18.4384 36.8999 16.4082 36.6378 15.3264 36.5949C13.8252 36.5377 12.7482 37.5242 12.7482 37.5242C12.7482 37.5242 12.7387 38.3391 13.83 38.706C15.4122 39.235 17.7521 39.1397 18.2859 39.7402C18.8053 40.3311 17.5091 40.4264 16.3081 40.2024C15.0071 39.9546 14.3352 39.8784 12.0524 40.2215C10.5084 40.4503 9.7268 41.5178 9.7268 41.5178C9.7268 41.5178 10.1414 42.4327 10.9754 42.5138C12.6386 42.6806 16.1366 42.3803 15.8792 43.0618C15.6457 43.6766 14.9166 43.6289 14.1684 43.5765C12.8054 43.486 11.5949 43.4192 10.2939 43.7242C8.73078 44.0912 8.18273 45.3874 8.18273 45.3874C8.18273 45.3874 8.57352 46.0594 9.49805 46.0737C11.1946 46.1023 13.3058 45.5161 13.7347 45.9021C14.3399 46.4502 12.9627 46.6551 12.2288 46.6885C11.309 46.7313 9.62195 46.8553 8.68312 47.3175C7.4393 47.9275 7.32016 48.8902 7.32016 48.8902C7.32016 48.8902 7.5918 49.3858 8.86422 49.2905C9.20258 49.2667 10.4464 48.8663 10.9277 48.9569C11.6902 49.1046 11.0373 49.5669 10.1938 49.7861C9.94602 49.8481 8.88805 50.0911 8.42578 50.3437C7.94445 50.6058 7.16766 50.8679 6.99609 52.3452C6.99609 52.3452 7.51555 52.5692 8.48297 52.2738C8.9357 52.1356 9.33602 51.821 9.56953 52.0498C9.79828 52.2785 9.255 52.9457 9.19305 53.632C9.05961 55.0378 9.8793 55.6478 9.8793 55.6478C9.8793 55.6478 10.8086 55.0617 10.9659 53.9417C11.1184 52.7551 10.7228 52.1832 10.618 51.9735Z" fill="#A1D65C"/>
<defs>
<linearGradient id="paint0_linear_405_163" x1="31.3415" y1="28.2246" x2="31.6937" y2="12.3394" gradientUnits="userSpaceOnUse">
<stop offset="0.365" stop-color="#1B5E20"/>
<stop offset="0.95" stop-color="#2E7D32"/>
</linearGradient>
<radialGradient id="paint1_radial_405_163" cx="0" cy="0" r="1" gradientUnits="userSpaceOnUse" gradientTransform="translate(40.7308 34.004) scale(13.1932)">
<stop offset="0.209" stop-color="#1B5E20"/>
<stop offset="0.74" stop-color="#2E7D32"/>
</radialGradient>
<radialGradient id="paint2_radial_405_163" cx="0" cy="0" r="1" gradientUnits="userSpaceOnUse" gradientTransform="translate(30.1958 38.4413) scale(15.981)">
<stop offset="0.209" stop-color="#1B5E20"/>
<stop offset="0.74" stop-color="#2E7D32"/>
</radialGradient>
<linearGradient id="paint3_linear_405_163" x1="32.8823" y1="39.9904" x2="32.8823" y2="36.5983" gradientUnits="userSpaceOnUse">
<stop stop-color="#5D4037"/>
<stop offset="1" stop-color="#5D4037" stop-opacity="0"/>
</linearGradient>
</defs>
</svg>
