<svg width="57" height="57" viewBox="0 0 57 57" fill="none" xmlns="http://www.w3.org/2000/svg">
<path d="M4.75 21.375C4.75 27.6739 7.25222 33.7148 11.7062 38.1688C16.1602 42.6228 22.2011 45.125 28.5 45.125C34.7989 45.125 40.8398 42.6228 45.2938 38.1688C49.7478 33.7148 52.25 27.6739 52.25 21.375" stroke="#C1541C" stroke-width="4.75" stroke-linecap="round" stroke-linejoin="round"/>
<path d="M28.5 45.125C28.5 38.8261 31.0022 32.7852 35.4562 28.3312C39.9102 23.8772 45.9511 21.375 52.25 21.375" stroke="#C1541C" stroke-width="4.75" stroke-linecap="round" stroke-linejoin="round"/>
<path d="M4.75 21.375C7.86889 21.375 10.9572 21.9893 13.8387 23.1829C16.7202 24.3764 19.3384 26.1258 21.5438 28.3312C23.7492 30.5366 25.4986 33.1548 26.6921 36.0363C27.8857 38.9178 28.5 42.0061 28.5 45.125" stroke="#C1541C" stroke-width="4.75" stroke-linecap="round" stroke-linejoin="round"/>
<path d="M28.5 9.5C30.8935 11.7849 32.7666 14.5586 33.992 17.6323C35.2174 20.706 35.7663 24.0076 35.6012 27.3125" stroke="#C1541C" stroke-width="4.75" stroke-linecap="round" stroke-linejoin="round"/>
<path d="M21.3988 27.3125C21.2338 24.0076 21.7826 20.706 23.008 17.6323C24.2334 14.5586 26.1066 11.7849 28.5 9.5" stroke="#C1541C" stroke-width="4.75" stroke-linecap="round" stroke-linejoin="round"/>
</svg>
