<svg width="61" height="61" viewBox="0 0 61 61" fill="none" xmlns="http://www.w3.org/2000/svg">
<g clip-path="url(#clip0_405_227)">
<path d="M28.9644 41.0769H12.8096C12.8096 41.0769 15.6105 52.0383 20.0177 57.3114C23.0186 60.9002 28.0663 61.1781 29.8625 61.1781C33.4513 61.1781 38.0263 60.8833 41.0272 57.291C46.2579 51.0369 48.7098 41.0769 48.7098 41.0769H28.9644Z" fill="#C1694F"/>
<path d="M46.8142 46.8787C47.5903 44.8792 48.1206 43.178 48.4189 42.1427C48.2319 41.7515 47.9849 41.3919 47.6869 41.0769H13.8336C13.5356 41.3913 13.2886 41.7503 13.1016 42.141C13.3964 43.1712 13.9132 44.8657 14.613 46.8058C17.214 49.117 22.6159 50.9708 30.7594 50.9708C38.8148 50.9708 44.1828 49.1543 46.8142 46.8787Z" fill="#A04E3C"/>
<path d="M30.4998 38.0099C41.5125 38.0099 50.44 35.9495 50.44 33.4078C50.44 30.8661 41.5125 28.8057 30.4998 28.8057C19.4871 28.8057 10.5596 30.8661 10.5596 33.4078C10.5596 35.9495 19.4871 38.0099 30.4998 38.0099Z" fill="#A04E3C"/>
<path d="M13.249 35.7068C16.6989 37.081 23.1242 38.0079 30.5002 38.0079C37.8761 38.0079 44.3014 37.081 47.7513 35.7068C44.3014 34.3326 37.8761 33.4058 30.5002 33.4058C23.1242 33.4058 16.6989 34.3343 13.249 35.7068Z" fill="#662113"/>
<path d="M31.7423 39.8601C31.527 39.8597 31.319 39.7823 31.1558 39.6418C30.9926 39.5013 30.8851 39.3071 30.8528 39.0942C29.0329 27.0942 32.3862 9.56853 40.1129 3.60578C40.3031 3.47097 40.538 3.41492 40.7686 3.44937C40.9992 3.48381 41.2075 3.60608 41.35 3.79059C41.4925 3.9751 41.5581 4.20756 41.5331 4.43934C41.5081 4.67113 41.3945 4.88427 41.216 5.0342C34.1925 10.453 30.8951 27.3433 32.6353 38.8231C32.6554 38.9517 32.6474 39.0832 32.6117 39.2083C32.576 39.3335 32.5135 39.4494 32.4286 39.5481C32.3436 39.6467 32.2383 39.7257 32.1198 39.7796C32.0013 39.8335 31.8725 39.8609 31.7423 39.8601Z" fill="#3E721D"/>
<path d="M31.7629 26.6353C31.8662 27.3148 33.9063 27.5706 36.3209 27.2029C38.7338 26.8369 40.6079 25.988 40.5045 25.3085C40.4011 24.6291 38.361 24.3732 35.9465 24.7409C33.5319 25.1052 31.6595 25.9541 31.7629 26.6353ZM31.9238 29.5819C32.0272 30.2614 34.2249 30.4918 36.8326 30.097C39.4404 29.7005 41.4703 28.8296 41.367 28.1484C41.2636 27.469 39.0659 27.2385 36.4582 27.6333C33.8504 28.0298 31.8205 28.9008 31.9238 29.5819Z" fill="#3E721D"/>
<path d="M37.1675 32.9745C40.02 32.5414 42.2487 31.6391 42.1454 30.9591C42.0422 30.2791 39.6461 30.0788 36.7937 30.5118C33.9413 30.9449 31.7126 31.8472 31.8158 32.5272C31.9191 33.2072 34.3151 33.4075 37.1675 32.9745Z" fill="#3E721D"/>
<path d="M32.3555 24.1052C32.5301 24.7711 34.4499 24.8422 36.6442 24.2661C38.8368 23.69 40.4736 22.6818 40.2991 22.0176C40.1246 21.3517 38.2048 21.2805 36.0104 21.8566C33.8178 22.4344 32.181 23.4409 32.3555 24.1052ZM32.6571 21.1145C32.8622 21.7719 34.6041 21.8109 36.551 21.2043C38.4962 20.5977 39.906 19.5725 39.7009 18.9168C39.4959 18.2593 37.754 18.2204 35.8071 18.827C33.8619 19.4336 32.4521 20.4587 32.6571 21.1145ZM32.8351 18.4305C33.0503 18.9812 34.6447 18.8761 36.3968 18.1932C38.1488 17.5104 39.3959 16.5107 39.1808 15.96C38.9656 15.4093 37.3711 15.5143 35.619 16.1972C33.867 16.8784 32.6216 17.8781 32.8351 18.4305ZM34.194 15.4855C34.3855 15.9786 35.7156 15.9227 37.1627 15.3584C38.6097 14.7959 39.6281 13.9385 39.4366 13.4454C39.2451 12.9523 37.915 13.0082 36.4679 13.5725C35.0192 14.1367 34.0008 14.9924 34.194 15.4855ZM35.2988 12.2356C35.3835 12.7575 36.5154 13.0082 37.8286 12.7964C39.1401 12.5829 40.1347 11.9865 40.05 11.4646C39.9653 10.9427 38.8334 10.6919 37.5202 10.9037C36.2087 11.1155 35.2141 11.712 35.2988 12.2356ZM36.6306 10.0735C36.7187 10.6191 37.9641 10.8699 39.4112 10.6343C40.8583 10.3988 41.9596 9.76677 41.8715 9.22116C41.7834 8.67555 40.538 8.42477 39.0909 8.6603C37.6439 8.89583 36.5425 9.52785 36.6306 10.0735ZM38.5826 7.63177C38.6623 8.11808 39.7924 8.33835 41.109 8.12485C42.4256 7.91135 43.4287 7.34371 43.3491 6.85741C43.2694 6.3711 42.1393 6.15083 40.8227 6.36433C39.5078 6.57952 38.5047 7.14716 38.5826 7.63177ZM40.1906 5.33071C40.2601 5.75602 41.2124 5.95596 42.3189 5.77635C43.4253 5.59674 44.2658 5.10535 44.1963 4.68005C44.1268 4.25474 43.1746 4.0548 42.0681 4.23441C40.9616 4.41402 40.1212 4.90541 40.1906 5.33071Z" fill="#3E721D"/>
<path d="M41.3972 3.98377C41.6158 4.35485 42.5765 4.19388 43.5424 3.62454C44.5082 3.05521 45.1131 2.29271 44.8945 1.92163C44.676 1.55054 43.7152 1.71152 42.7494 2.28085C41.7835 2.84849 41.1786 3.61268 41.3972 3.98377Z" fill="#3E721D"/>
<path d="M40.7789 3.88204C41.1923 4.00574 41.7887 3.23646 42.1107 2.16388C42.4326 1.0896 42.3598 0.120376 41.948 -0.00501284C41.5346 -0.128707 40.9381 0.64057 40.6162 1.71315C40.2942 2.78743 40.3671 3.75835 40.7789 3.88204ZM22.4856 26.2487C22.4856 26.9367 24.4647 27.4941 26.9064 27.4941C29.3481 27.4941 31.3272 26.9367 31.3272 26.2487C31.3272 25.5608 29.3481 25.0033 26.9064 25.0033C24.4647 25.0033 22.4856 25.5608 22.4856 26.2487ZM21.9163 28.7192C21.8502 29.4038 23.7666 30.1493 26.1965 30.3815C28.6263 30.6153 30.6495 30.2493 30.7155 29.5647C30.7816 28.8802 28.8652 28.1346 26.4354 27.9025C24.0055 27.6687 21.9824 28.0347 21.9163 28.7192ZM21.0064 31.5201C20.9403 32.2047 23.0736 32.9706 25.7695 33.2298C28.4653 33.4891 30.7054 33.1434 30.7715 32.4589C30.8375 31.7743 28.7042 31.0084 26.0084 30.7492C23.3108 30.4899 21.0725 30.8356 21.0064 31.5201ZM23.7853 23.1597C23.7277 23.846 25.4255 24.5458 27.5757 24.7254C29.726 24.905 31.5153 24.4933 31.5729 23.8087C31.6305 23.1225 29.9327 22.4227 27.7825 22.243C25.6322 22.0634 23.8429 22.4735 23.7853 23.1597ZM25.1035 20.7807C25.073 21.4687 26.6404 22.0956 28.6026 22.1837C30.5664 22.2702 32.1829 21.7838 32.2134 21.0976C32.2439 20.4097 30.6766 19.7827 28.7144 19.6946C26.7505 19.6065 25.134 20.0928 25.1035 20.7807Z" fill="#3E721D"/>
<path d="M26.8151 18.0919C26.6999 18.6883 27.9233 19.4271 29.5466 19.7406C31.1699 20.054 32.5796 19.8236 32.6949 19.2272C32.8101 18.6307 31.5867 17.8919 29.9634 17.5785C28.3401 17.265 26.9304 17.4954 26.8151 18.0919ZM27.6014 15.0385C27.3726 15.6027 28.4299 16.5635 29.9617 17.1853C31.4935 17.8072 32.9219 17.8547 33.1507 17.2921C33.3794 16.7278 32.3238 15.7671 30.7903 15.1452C29.2568 14.5234 27.8301 14.4759 27.6014 15.0385ZM28.2469 11.6005C27.9267 12.0664 28.8197 13.2373 30.243 14.215C31.6663 15.1927 33.0778 15.6061 33.3997 15.1402C33.72 14.6742 32.827 13.5033 31.4037 12.5256C29.9804 11.5479 28.5672 11.1345 28.2469 11.6005ZM30.1634 10.1127C29.8431 10.5787 30.5887 11.6479 31.829 12.5002C33.0693 13.3525 34.3351 13.6643 34.6553 13.1983C34.9756 12.7323 34.23 11.6632 32.9897 10.8109C31.7494 9.95854 30.4836 9.64677 30.1634 10.1127ZM31.3495 7.49821C30.9547 7.90318 31.5087 9.08421 32.5881 10.1331C33.6675 11.1819 34.8604 11.7038 35.2552 11.2989C35.65 10.8939 35.0959 9.71285 34.0165 8.66399C32.9389 7.61513 31.7443 7.09324 31.3495 7.49821ZM32.8982 5.62924C32.5034 6.03421 32.9897 7.14746 33.9826 8.11329C34.9756 9.07913 36.1007 9.53493 36.4955 9.12827C36.8903 8.72329 36.404 7.61004 35.411 6.64421C34.4181 5.67838 33.293 5.22427 32.8982 5.62924ZM34.491 3.98224C34.1029 4.38043 34.5215 5.41913 35.428 6.29854C36.3345 7.17796 37.3817 7.56938 37.7697 7.17118C38.1577 6.77299 37.7392 5.73429 36.8327 4.85488C35.9262 3.97546 34.879 3.58235 34.491 3.98224Z" fill="#3E721D"/>
<path d="M38.8218 6.06104C39.2911 5.76152 39.1212 4.656 38.4421 3.59179C37.763 2.52757 36.832 1.90767 36.3626 2.20718C35.8932 2.5067 36.0632 3.61223 36.7423 4.67644C37.4213 5.74065 38.3524 6.36056 38.8218 6.06104Z" fill="#3E721D"/>
<path d="M38.6408 0.909781C38.1986 1.06228 38.124 2.01117 38.4764 3.02953C38.8289 4.0462 39.4728 4.7477 39.915 4.5935C40.3573 4.43931 40.4318 3.49211 40.0794 2.47375C39.7269 1.45709 39.0831 0.757281 38.6408 0.909781Z" fill="#3E721D"/>
<path d="M28.6108 40.0398C28.3825 40.0057 28.1758 39.8857 28.0332 39.7043C27.8905 39.5228 27.8225 39.2937 27.8432 39.0638C29.1191 25.2151 23.8358 15.3924 12.9643 11.4088C12.853 11.3684 12.7509 11.3063 12.6637 11.2263C12.5765 11.1462 12.506 11.0497 12.4563 10.9423C12.4065 10.8349 12.3785 10.7188 12.3738 10.6005C12.3691 10.4822 12.3878 10.3642 12.4288 10.2532C12.4689 10.1415 12.5308 10.0388 12.6108 9.95118C12.6909 9.86355 12.7876 9.7927 12.8952 9.74273C13.0029 9.69276 13.1194 9.66467 13.238 9.66009C13.3566 9.65551 13.4749 9.67454 13.5861 9.71606C25.2981 14.0064 30.9999 24.4882 29.641 39.2299C29.6299 39.3521 29.5939 39.4707 29.5354 39.5785C29.4768 39.6863 29.3969 39.781 29.3004 39.8568C29.204 39.9327 29.093 39.988 28.9745 40.0195C28.8559 40.0509 28.7321 40.0579 28.6108 40.0398Z" fill="#3E721D"/>
<path d="M28.2361 28.4836C28.2225 29.1716 26.2349 29.6918 23.7933 29.646C21.3516 29.6003 19.3843 29.0055 19.3962 28.3176C19.4097 27.6296 21.399 27.1094 23.839 27.1535C26.2807 27.2009 28.2479 27.7957 28.2361 28.4836ZM28.2327 31.4625C28.2191 32.1504 26.2316 32.6706 23.7899 32.6265C21.3482 32.5825 18.8556 31.8166 18.8692 31.1286C18.8811 30.4407 21.3956 30.09 23.8373 30.1357C26.2773 30.1798 28.2446 30.7745 28.2327 31.4625Z" fill="#3E721D"/>
<path d="M28.9358 34.0548C28.9223 34.7428 26.9347 35.263 24.493 35.2189C22.053 35.1732 19.5588 34.409 19.5723 33.721C19.5859 33.0331 22.0987 32.6823 24.5404 32.7281C26.9821 32.7738 28.9477 33.3686 28.9358 34.0548Z" fill="#5C913B"/>
<path d="M27.9566 26.2927C27.8651 26.9739 25.969 27.2823 23.7205 26.9789C21.4737 26.6756 19.725 25.8776 19.8165 25.1964C19.908 24.5152 21.8058 24.2068 24.0526 24.5101C26.3011 24.8134 28.0481 25.6115 27.9566 26.2927ZM26.696 23.2952C26.6045 23.9764 24.8931 24.3102 22.8733 24.0374C20.8535 23.7663 19.2912 22.9919 19.3827 22.3108C19.4742 21.6296 21.1856 21.2958 23.2054 21.5686C25.2252 21.8414 26.7875 22.6141 26.696 23.2952Z" fill="#3E721D"/>
<path d="M25.9483 20.503C25.9551 21.0944 24.4351 21.5908 22.556 21.6112C20.6752 21.6315 19.1468 21.1689 19.14 20.5776C19.1332 19.9862 20.6531 19.4897 22.5323 19.4694C24.4114 19.4491 25.9415 19.9116 25.9483 20.503ZM23.5896 18.2782C23.5947 18.8069 22.3408 19.2508 20.7887 19.2678C19.2349 19.2847 17.9725 18.8696 17.9658 18.3409C17.9607 17.8122 19.2146 17.3683 20.7667 17.3513C22.3205 17.3327 23.5845 17.7478 23.5896 18.2782ZM21.3513 15.6738C21.4665 16.1906 20.5108 16.8447 19.2129 17.1361C17.9166 17.4276 16.7712 17.2446 16.6543 16.7295C16.539 16.2127 17.4947 15.5586 18.7926 15.2672C20.0906 14.9757 21.236 15.157 21.3513 15.6738ZM19.3111 14.1641C19.4315 14.7029 18.3707 15.401 16.9406 15.7213C15.5105 16.0432 14.2515 15.867 14.1312 15.3282C14.0109 14.7893 15.0716 14.0912 16.5018 13.771C17.9319 13.449 19.1891 13.6253 19.3111 14.1641ZM16.5882 12.6272C16.6966 13.1068 15.7291 13.7337 14.4278 14.0268C13.1281 14.3183 11.9861 14.1658 11.8776 13.6863C11.7692 13.205 12.7367 12.5798 14.038 12.2866C15.3394 11.9952 16.4814 12.1477 16.5882 12.6272ZM14.238 11.0904C14.3329 11.5106 13.5229 12.0511 12.4283 12.2968C11.3354 12.5425 10.3713 12.4019 10.2781 11.98C10.1832 11.5597 10.9931 11.0192 12.086 10.7735C13.1806 10.5278 14.1431 10.6701 14.238 11.0904Z" fill="#3E721D"/>
<path d="M12.6167 10.2904C12.5523 10.7157 11.6 10.9258 10.4918 10.7564C9.38365 10.587 8.53813 10.1057 8.60421 9.67873C8.6686 9.25343 9.62088 9.04332 10.729 9.21276C11.8355 9.38221 12.681 9.86512 12.6167 10.2904Z" fill="#3E721D"/>
<path d="M13.1523 9.96651C12.8168 10.2359 11.9763 9.74454 11.2765 8.86851C10.5767 7.99248 10.2819 7.06393 10.6191 6.79621C10.9563 6.52679 11.7967 7.01818 12.4965 7.8942C13.1946 8.77023 13.4895 9.69709 13.1523 9.96651ZM37.1795 26.4484C37.2896 27.1278 35.424 27.9937 33.0145 28.3817C30.605 28.7698 28.5615 28.5342 28.4531 27.8548C28.343 27.1753 30.2085 26.3094 32.618 25.9214C35.0275 25.5334 37.071 25.7689 37.1795 26.4484ZM38.6774 28.6156C38.7875 29.295 36.173 30.6472 33.7618 31.0369C31.3523 31.425 29.3088 31.1894 29.1987 30.51C29.0885 29.8305 30.9541 28.9646 33.3636 28.5766C35.7765 28.1886 38.5672 27.9361 38.6774 28.6156ZM39.6144 31.4605C39.7245 32.14 36.4339 33.665 34.0244 34.053C31.6149 34.4411 29.5714 34.2055 29.463 33.5261C29.3528 32.8466 31.2184 31.9807 33.6279 31.5927C36.0374 31.2047 39.5043 30.7811 39.6144 31.4605ZM35.2343 23.2103C35.4444 23.866 33.9499 24.9318 31.8962 25.591C29.8425 26.2518 28.0058 26.2552 27.7957 25.5995C27.5855 24.9437 29.08 23.8779 31.1337 23.2188C33.1874 22.5596 35.0242 22.5562 35.2343 23.2103ZM33.8804 20.811C34.0905 21.4667 32.7451 22.4851 30.8745 23.0849C29.0038 23.6847 27.3161 23.6424 27.106 22.9883C26.8959 22.3326 28.2413 21.3142 30.112 20.7144C31.9826 20.1128 33.6686 20.1552 33.8804 20.811ZM31.4082 17.944C31.7369 18.4557 30.8778 19.596 29.4884 20.4924C28.099 21.3888 26.7044 21.7005 26.3757 21.1888C26.047 20.6771 26.9061 19.5367 28.2955 18.6404C29.685 17.7457 31.0778 17.4339 31.4082 17.944ZM29.5409 15.404C29.9628 15.8411 29.341 17.1272 28.1515 18.2761C26.962 19.4249 25.6556 20.001 25.232 19.5638C24.81 19.1267 25.4319 17.8406 26.6214 16.6918C27.8109 15.5429 29.119 14.9668 29.5409 15.404ZM27.6601 12.454C28.1312 12.7674 27.7397 14.1857 26.7841 15.6243C25.8284 17.0611 24.6711 17.9728 24.2 17.6593C23.729 17.3458 24.1204 15.9276 25.0761 14.489C26.0317 13.0521 27.189 12.1405 27.6601 12.454ZM25.3268 11.788C25.7979 12.1015 25.5048 13.3706 24.6711 14.6245C23.8374 15.8784 22.7801 16.6392 22.309 16.3258C21.838 16.0123 22.1311 14.7431 22.9648 13.4893C23.7968 12.2371 24.8541 11.4746 25.3268 11.788ZM23.2512 9.80554C23.768 10.0343 23.6934 11.3356 23.0834 12.7115C22.4734 14.0874 21.5601 15.016 21.0433 14.7872C20.5265 14.5585 20.601 13.2571 21.211 11.8812C21.8193 10.5053 22.7343 9.57509 23.2512 9.80554ZM21.1178 8.64823C21.6347 8.87698 21.5991 10.0902 21.0382 11.3576C20.4773 12.6251 19.6013 13.4672 19.0845 13.2368C18.5677 13.0063 18.6033 11.7948 19.1642 10.5274C19.725 9.25993 20.5993 8.41948 21.1178 8.64823ZM19.0252 7.7129C19.5335 7.93826 19.5318 9.05659 19.0201 10.2122C18.5084 11.3661 17.6815 12.1201 17.1732 11.8948C16.6648 11.6694 16.6665 10.5511 17.1783 9.39548C17.69 8.24157 18.5169 7.48754 19.0252 7.7129Z" fill="#5C913B"/>
<path d="M16.6257 6.7643C17.173 6.86767 17.4272 7.95719 17.1933 9.19753C16.9595 10.4379 16.3275 11.3613 15.7802 11.258C15.2329 11.1546 14.9787 10.0651 15.2125 8.82475C15.4464 7.58272 16.0784 6.66094 16.6257 6.7643ZM14.0298 6.41186C14.4975 6.38814 14.9194 7.24214 14.9719 8.31642C15.0244 9.39239 14.6889 10.282 14.2213 10.304C13.7536 10.3277 13.3317 9.47372 13.2792 8.39944C13.2249 7.32516 13.5621 6.43389 14.0298 6.41186ZM31.9841 42.512C31.8555 42.5122 31.7283 42.4848 31.6111 42.4318C31.4939 42.3787 31.3894 42.3012 31.3046 42.2044C31.2199 42.1076 31.1568 41.9938 31.1197 41.8706C31.0826 41.7474 31.0723 41.6177 31.0895 41.4902C33.5989 22.7904 45.1229 14.43 51.7973 13.5522C52.0342 13.5219 52.2735 13.5865 52.463 13.7318C52.6525 13.8772 52.7768 14.0916 52.8089 14.3283C52.8248 14.4458 52.8173 14.5652 52.7869 14.6797C52.7564 14.7943 52.7036 14.9017 52.6315 14.9957C52.5593 15.0897 52.4693 15.1686 52.3665 15.2276C52.2638 15.2867 52.1504 15.3249 52.0328 15.3399C45.8871 16.1481 35.2527 24.0273 32.8771 41.7292C32.8484 41.9457 32.742 42.1444 32.5777 42.2884C32.4135 42.4324 32.2026 42.5118 31.9841 42.512Z" fill="#5C913B"/>
<path d="M35.3956 30.8287C35.3414 31.5149 37.2697 32.2266 39.7029 32.4198C42.1361 32.6129 44.1525 32.213 44.2085 31.5268C44.2627 30.8405 42.3344 30.1289 39.9012 29.9357C37.4663 29.7442 35.4499 30.1424 35.3956 30.8287Z" fill="#5C913B"/>
<path d="M40.0344 29.7728C42.3005 29.6912 44.1173 29.0678 44.0926 28.3804C44.0678 27.693 42.2108 27.202 39.9448 27.2836C37.6788 27.3652 35.8619 27.9886 35.8866 28.676C35.9114 29.3634 37.7684 29.8544 40.0344 29.7728Z" fill="#5C913B"/>
<path d="M37.4358 25.8164C37.4613 26.5043 39.132 27.0025 41.167 26.9279C43.2037 26.8551 44.8338 26.2383 44.8084 25.5503C44.7829 24.8624 43.1122 24.3642 41.0772 24.4388C39.0405 24.5116 37.4104 25.1284 37.4358 25.8164Z" fill="#5C913B"/>
<path d="M38.4522 23.1086C38.3879 23.6966 39.8518 24.3388 41.7208 24.5438C43.5898 24.7489 45.1572 24.4371 45.2215 23.8491C45.2859 23.2612 43.8219 22.619 41.953 22.4139C40.084 22.2106 38.5149 22.5207 38.4522 23.1086ZM41.0142 21.1245C40.9566 21.6514 42.1614 22.214 43.705 22.3817C45.2487 22.5495 46.5466 22.2597 46.6042 21.7345C46.6618 21.2075 45.4571 20.6449 43.9134 20.4772C42.3698 20.3094 41.0719 20.5992 41.0142 21.1245ZM43.4966 18.7522C43.3305 19.2555 44.2201 19.9993 45.4825 20.4162C46.7448 20.833 47.9022 20.7635 48.0682 20.2603C48.2343 19.757 47.3447 19.0132 46.0823 18.5963C44.82 18.1795 43.6627 18.249 43.4966 18.7522ZM45.6757 17.4492C45.5028 17.9745 46.4907 18.7709 47.8835 19.2318C49.2764 19.691 50.5455 19.6384 50.7183 19.1148C50.8912 18.5896 49.9033 17.7932 48.5105 17.3323C47.1176 16.8714 45.8485 16.9239 45.6757 17.4492ZM48.5342 16.1851C48.38 16.6528 49.2814 17.3696 50.5472 17.7881C51.8129 18.2066 52.9652 18.166 53.1194 17.6983C53.2735 17.2306 52.3721 16.5122 51.1063 16.0953C49.8406 15.6768 48.6884 15.7175 48.5342 16.1851ZM51.0233 14.8855C50.8878 15.2956 51.6418 15.9106 52.7059 16.2631C53.77 16.6138 54.7426 16.5681 54.8782 16.158C55.0137 15.748 54.2597 15.1329 53.1956 14.7805C52.1315 14.428 51.1589 14.4755 51.0233 14.8855Z" fill="#5C913B"/>
<path d="M52.7163 14.2467C52.74 14.6771 53.6652 14.977 54.7852 14.9177C55.9052 14.8584 56.7931 14.4602 56.7711 14.0298C56.7474 13.5994 55.8222 13.2995 54.7022 13.3588C53.5821 13.4198 52.6926 13.8163 52.7163 14.2467Z" fill="#5C913B"/>
<path d="M52.2143 13.8723C52.5226 14.1722 53.4071 13.7655 54.19 12.9624C54.9711 12.1592 55.3558 11.2645 55.0474 10.9629C54.739 10.663 53.8545 11.0697 53.0716 11.8728C52.2888 12.6777 51.9059 13.5724 52.2143 13.8723ZM26.6925 27.9294C26.518 28.5953 28.2887 29.6374 30.6491 30.2593C33.0094 30.8811 35.0665 30.8455 35.241 30.1813C35.4172 29.5154 33.6448 28.4733 31.2845 27.8515C28.9241 27.2296 26.8671 27.2635 26.6925 27.9294ZM28.9445 24.898C28.6716 25.5301 30.0543 26.7365 32.0351 27.5939C34.0159 28.4513 35.8425 28.6343 36.1153 28.004C36.3881 27.3719 35.0055 26.1655 33.0247 25.3081C31.0456 24.449 29.219 24.266 28.9445 24.898ZM30.5271 22.641C30.2543 23.2731 31.4946 24.4168 33.2975 25.198C35.1004 25.9791 36.7846 26.1011 37.0575 25.4691C37.3303 24.837 36.0899 23.6933 34.287 22.9122C32.4841 22.131 30.7999 22.0107 30.5271 22.641ZM33.267 20.0299C32.8891 20.506 33.633 21.726 34.9292 22.7529C36.2255 23.7797 37.581 24.227 37.9589 23.7509C38.3368 23.2748 37.5929 22.0548 36.2966 21.0279C35.0021 20.0011 33.6448 19.5538 33.267 20.0299ZM35.3732 17.6848C34.9106 18.0796 35.4037 19.4199 36.4746 20.6789C37.5471 21.9378 38.7909 22.6393 39.2535 22.2445C39.716 21.8497 39.223 20.5094 38.1521 19.2505C37.0812 17.9915 35.8358 17.29 35.3732 17.6848ZM37.5336 14.9313C37.0337 15.1973 37.2862 16.6478 38.0961 18.1711C38.9061 19.6944 39.9685 20.7145 40.4684 20.4484C40.9682 20.1824 40.7158 18.732 39.9058 17.2087C39.0959 15.6853 38.0334 14.6653 37.5336 14.9313ZM39.9211 14.4975C39.4212 14.7636 39.589 16.0564 40.2955 17.3849C41.0021 18.7133 41.9798 19.5758 42.4797 19.3098C42.9795 19.0437 42.8118 17.7509 42.1052 16.4224C41.3986 15.0923 40.4209 14.2315 39.9211 14.4975ZM42.1798 12.7252C41.6426 12.9031 41.5901 14.2044 42.0628 15.6345C42.5356 17.0629 43.354 18.0779 43.8911 17.9C44.4283 17.7221 44.4808 16.4207 44.0081 14.9906C43.5353 13.5622 42.7169 12.5489 42.1798 12.7252ZM44.4164 11.783C43.8793 11.961 43.7963 13.1708 44.2317 14.4874C44.6672 15.804 45.4551 16.7257 45.9923 16.5478C46.5294 16.3699 46.6124 15.1601 46.177 13.8435C45.7415 12.5286 44.9536 11.6068 44.4164 11.783ZM46.5887 11.0561C46.06 11.2307 45.9533 12.3439 46.3498 13.5436C46.7463 14.7432 47.4952 15.5735 48.0239 15.399C48.5526 15.2245 48.6593 14.1112 48.2628 12.9115C47.868 11.7119 47.1174 10.8816 46.5887 11.0561Z" fill="#77B255"/>
<path d="M49.0711 10.3459C48.517 10.395 48.1578 11.4541 48.2679 12.713C48.3797 13.9703 48.9186 14.9514 49.4727 14.9023C50.0267 14.8531 50.386 13.7941 50.2758 12.5351C50.1657 11.2762 49.6251 10.2968 49.0711 10.3459ZM51.689 10.2476C51.2247 10.1799 50.7232 10.9864 50.5656 12.0522C50.408 13.1163 50.6554 14.0364 51.1197 14.1042C51.5839 14.172 52.0872 13.3654 52.2431 12.2996C52.399 11.2355 52.1516 10.3171 51.689 10.2476Z" fill="#77B255"/>
<path d="M28.7162 39.7655C28.524 39.7521 28.3411 39.6774 28.1944 39.5523C28.0477 39.4273 27.9449 39.2585 27.9012 39.0708C27.7809 38.5557 24.7546 26.4828 6.35973 25.9524C5.90901 25.9728 5.47015 25.5254 5.4837 25.0256C5.487 24.9072 5.51359 24.7906 5.56196 24.6825C5.61032 24.5744 5.67953 24.4768 5.7656 24.3955C5.85168 24.3141 5.95294 24.2505 6.06361 24.2083C6.17428 24.1661 6.29217 24.1462 6.41057 24.1495C26.2288 24.7087 29.6278 38.5269 29.6583 38.6675C29.6893 38.8047 29.6878 38.9471 29.654 39.0836C29.6201 39.22 29.5548 39.3466 29.4632 39.4533C29.3717 39.56 29.2564 39.6438 29.1267 39.698C28.997 39.7522 28.8565 39.7753 28.7162 39.7655Z" fill="#5C913B"/>
<path d="M27.4435 35.9373C27.7028 36.5744 26.0795 37.8368 23.8174 38.7551C21.5554 39.6735 19.5119 39.9023 19.2543 39.2652C18.995 38.6281 20.6183 37.3657 22.8804 36.4473C25.1408 35.5272 27.1843 35.3002 27.4435 35.9373ZM26.3252 34.0327C26.5099 34.6953 24.8866 35.7238 22.7008 36.3304C20.515 36.937 18.5952 36.8913 18.4105 36.2287C18.2258 35.5662 19.849 34.5377 22.0349 33.9311C24.2207 33.3244 26.1405 33.3702 26.3252 34.0327ZM23.9869 31.774C24.1716 32.4366 22.7279 33.4159 20.764 33.9616C18.8002 34.5072 17.06 34.4106 16.8753 33.7481C16.6906 33.0855 18.1343 32.1061 20.0964 31.5605C22.062 31.0149 23.8022 31.1115 23.9869 31.774Z" fill="#77B255"/>
<path d="M22.1992 29.5003C22.4381 30.0408 21.2367 31.0964 19.5169 31.8538C17.797 32.613 16.2076 32.7892 15.9687 32.2487C15.7298 31.7081 16.9312 30.6525 18.651 29.8951C20.3726 29.136 21.9603 28.9597 22.1992 29.5003ZM19.1577 28.3836C19.3712 28.8682 18.3918 29.768 16.9718 30.3949C15.5502 31.0219 14.2251 31.1371 14.0116 30.6525C13.7981 30.1679 14.7775 29.2681 16.1975 28.6412C17.6174 28.0142 18.9425 27.899 19.1577 28.3836ZM16.0738 26.8705C16.3838 27.2992 15.762 28.2786 14.6843 29.0563C13.6067 29.8341 12.4815 30.117 12.1715 29.6883C11.8614 29.2597 12.4832 28.2803 13.5609 27.5025C14.6386 26.7248 15.7637 26.4401 16.0738 26.8705ZM13.6033 26.2859C13.9269 26.7332 13.2254 27.7923 12.0359 28.6513C10.8464 29.5104 9.62132 29.8425 9.29768 29.3952C8.97404 28.9479 9.67554 27.8888 10.865 27.0298C12.0545 26.1707 13.2796 25.8386 13.6033 26.2859ZM10.4957 25.9436C10.7837 26.3418 10.1415 27.2992 9.06046 28.0803C7.9794 28.8615 6.86954 29.1698 6.58149 28.7717C6.29343 28.3735 6.93562 27.4161 8.01668 26.635C9.09774 25.8538 10.2076 25.5454 10.4957 25.9436ZM7.73032 25.4573C7.98279 25.8064 7.45074 26.6214 6.54251 27.2788C5.63429 27.9346 4.69218 28.1837 4.43971 27.8346C4.18724 27.4856 4.71929 26.6705 5.62751 26.0131C6.53743 25.3557 7.47785 25.1066 7.73032 25.4573Z" fill="#77B255"/>
<path d="M5.92371 25.3592C6.03216 25.776 5.23916 26.3419 4.15471 26.6232C3.07027 26.9045 2.10274 26.7944 1.9943 26.3758C1.88585 25.959 2.67885 25.3931 3.7633 25.1118C4.84944 24.8322 5.81696 24.9423 5.92371 25.3592Z" fill="#77B255"/>
<path d="M6.28966 24.8508C6.08633 25.2304 5.1205 25.1101 4.13263 24.5797C3.14477 24.0511 2.50936 23.3123 2.71269 22.9327C2.91602 22.5532 3.88186 22.6735 4.86972 23.2038C5.85758 23.7342 6.493 24.4713 6.28966 24.8508ZM34.8648 30.5459C35.2325 31.1271 33.8583 32.6572 31.7961 33.9619C29.734 35.2666 27.7634 35.8546 27.3957 35.2734C27.028 34.6922 28.4022 33.1621 30.4643 31.8574C32.5264 30.5527 34.4971 29.9647 34.8648 30.5459ZM31.8012 28.3363C32.2519 28.8548 31.298 30.4239 29.6696 31.8387C28.0413 33.2536 26.3553 33.9805 25.9029 33.462C25.4521 32.9418 26.4061 31.3745 28.0345 29.9596C29.6645 28.543 31.3505 27.8161 31.8012 28.3363ZM29.612 26.6622C30.0627 27.1807 29.2274 28.6481 27.743 29.9359C26.2604 31.2253 24.6913 31.8489 24.2406 31.3304C23.7899 30.8102 24.6252 29.3445 26.1096 28.0567C27.5922 26.7673 29.1613 26.1437 29.612 26.6622ZM26.2112 25C26.7162 25.3405 26.3739 26.7266 25.4487 28.0974C24.5236 29.4682 23.3646 30.3036 22.8613 29.963C22.3564 29.6224 22.6987 28.2363 23.6238 26.8655C24.549 25.4947 25.708 24.6594 26.2112 25ZM23.4951 23.4004C24.0559 23.6359 23.9898 25.0627 23.3476 26.5877C22.7054 28.111 21.7311 29.1564 21.1703 28.9192C20.6094 28.6837 20.6755 27.257 21.3177 25.732C21.9599 24.2087 22.9342 23.1632 23.4951 23.4004ZM20.606 21.4281C21.1635 21.5314 21.3601 22.9903 21.0483 24.6865C20.7348 26.3843 20.0299 27.6772 19.4741 27.5738C18.9184 27.4705 18.7201 26.0115 19.0319 24.3154C19.3437 22.6176 20.0486 21.3247 20.606 21.4281ZM18.1982 21.7348C18.754 21.8381 18.9844 23.1208 18.7116 24.6001C18.4388 26.0793 17.7661 27.196 17.2104 27.0943C16.6529 26.9909 16.4241 25.7082 16.6969 24.229C16.9697 22.748 17.6407 21.6314 18.1982 21.7348ZM15.5091 20.7283C16.0751 20.735 16.519 21.9601 16.5004 23.4648C16.4817 24.9695 16.0073 26.1827 15.4414 26.1759C14.8754 26.1691 14.4315 24.944 14.4501 23.4394C14.4704 21.9347 14.9432 20.7215 15.5091 20.7283ZM13.0929 20.5046C13.6588 20.5114 14.1027 21.6416 14.0858 23.0276C14.0689 24.4137 13.5961 25.532 13.0302 25.5235C12.4642 25.5168 12.0203 24.3866 12.0372 23.0005C12.0542 21.6162 12.5269 20.4978 13.0929 20.5046ZM10.802 20.4673C11.3577 20.4741 11.7966 21.5043 11.7814 22.7667C11.7661 24.029 11.3018 25.0474 10.7444 25.0406C10.1886 25.0338 9.74972 24.0036 9.76497 22.7413C9.78191 21.4789 10.2462 20.4605 10.802 20.4673Z" fill="#5C913B"/>
<path d="M8.22129 20.5401C8.7652 20.4198 9.42773 21.3212 9.70054 22.5531C9.97334 23.7849 9.75645 24.8829 9.21254 25.0032C8.66862 25.1235 8.00609 24.2221 7.73329 22.9902C7.46048 21.7567 7.67907 20.6604 8.22129 20.5401ZM5.69657 21.2365C6.11679 21.0315 6.84201 21.6499 7.31306 22.6175C7.78412 23.585 7.82648 24.5356 7.40456 24.7406C6.98434 24.9456 6.25912 24.3271 5.78806 23.3596C5.31701 22.3938 5.27634 21.4432 5.69657 21.2365Z" fill="#5C913B"/>
<path d="M31.2572 41.3392H31.2165C30.9775 41.3282 30.7526 41.2228 30.5912 41.0462C30.4299 40.8696 30.3452 40.6361 30.3557 40.3971C30.4422 38.4315 30.2676 28.4258 18.2862 24.6337C18.1733 24.598 18.0685 24.5403 17.9778 24.4641C17.8872 24.3879 17.8124 24.2946 17.7578 24.1895C17.7032 24.0844 17.6698 23.9696 17.6596 23.8516C17.6494 23.7336 17.6625 23.6147 17.6982 23.5018C17.7339 23.3888 17.7916 23.2841 17.8678 23.1934C17.944 23.1027 18.0373 23.028 18.1424 22.9734C18.2475 22.9188 18.3623 22.8854 18.4803 22.8752C18.5983 22.865 18.7172 22.8781 18.8301 22.9138C32.0671 27.1042 32.2535 38.279 32.1569 40.4767C32.1469 40.7087 32.0477 40.9278 31.8801 41.0885C31.7125 41.2492 31.4894 41.339 31.2572 41.3392Z" fill="#77B255"/>
<path d="M31.2472 39.7502C31.1506 40.4313 29.2511 40.7245 27.006 40.4042C24.7609 40.084 23.019 39.2723 23.1172 38.5912C23.2138 37.91 25.1133 37.6169 27.3584 37.9371C29.6019 38.2574 31.3438 39.069 31.2472 39.7502Z" fill="#A6D388"/>
<path d="M31.1341 37.2254C31.0375 37.9066 29.3227 38.2251 27.3063 37.9388C25.2882 37.6507 23.7327 36.8662 23.8293 36.185C23.9259 35.5038 25.6407 35.1853 27.6571 35.4717C29.6735 35.758 31.2307 36.5442 31.1341 37.2254ZM29.9802 34.0517C29.9819 34.6431 28.4585 35.1277 26.5794 35.1345C24.6986 35.1395 23.1736 34.6651 23.1702 34.0737C23.1685 33.4824 24.6918 32.9978 26.5709 32.991C28.4518 32.9859 29.9785 33.4604 29.9802 34.0517ZM28.6585 31.9692C28.6602 32.4979 27.4029 32.9317 25.8491 32.9368C24.2953 32.9419 23.0363 32.5165 23.0346 31.9879C23.0329 31.4592 24.2902 31.0254 25.844 31.0203C27.3961 31.0153 28.6568 31.4406 28.6585 31.9692ZM26.4388 29.3479C26.5506 29.8647 25.5882 30.512 24.2885 30.7933C22.9889 31.0746 21.8451 30.8831 21.7333 30.3663C21.6215 29.8495 22.5839 29.2022 23.8835 28.9209C25.1832 28.6397 26.3269 28.8311 26.4388 29.3479ZM24.4105 27.8229C24.5274 28.3635 23.4599 29.0514 22.0281 29.3632C20.5946 29.6733 19.3391 29.4869 19.2221 28.948C19.1052 28.4075 20.1727 27.7196 21.6045 27.4078C23.0363 27.0977 24.2936 27.2824 24.4105 27.8229ZM22.5568 26.1573C22.6619 26.6385 21.6892 27.257 20.3862 27.54C19.0832 27.8229 17.9428 27.6603 17.8378 27.179C17.7344 26.6978 18.7053 26.0794 20.0084 25.7964C21.3131 25.5151 22.4534 25.6761 22.5568 26.1573ZM19.683 24.817C19.7745 25.2389 18.9595 25.7727 17.8649 26.0099C16.7686 26.2471 15.8078 26.098 15.7163 25.6778C15.6248 25.2559 16.4399 24.7221 17.5345 24.4849C18.6291 24.246 19.5915 24.3951 19.683 24.817ZM17.7463 23.8969C17.6785 24.3222 16.7262 24.5239 15.6181 24.3459C14.5116 24.168 13.6694 23.68 13.7372 23.2547C13.805 22.8294 14.7573 22.6278 15.8654 22.8057C16.9719 22.9836 17.8141 23.4716 17.7463 23.8969Z" fill="#C6E5B3"/>
<path d="M18.2844 23.5782C17.9455 23.8442 17.1084 23.346 16.4154 22.4649C15.7224 21.5838 15.436 20.6536 15.7732 20.3875C16.1121 20.1215 16.9492 20.6197 17.6422 21.5008C18.3352 22.3802 18.6233 23.3104 18.2844 23.5782ZM39.1904 37.2066C39.3955 37.8623 37.8925 38.918 35.8337 39.5619C33.775 40.2058 31.9382 40.1956 31.7332 39.5398C31.5282 38.8824 33.0311 37.8284 35.0899 37.1846C37.1486 36.5407 38.9854 36.5508 39.1904 37.2066ZM38.0162 34.9038C38.2212 35.5596 36.8674 36.5678 34.9916 37.1541C33.1159 37.7403 31.4299 37.6844 31.2232 37.027C31.0164 36.3695 32.372 35.363 34.2477 34.7751C36.1235 34.1905 37.8095 34.2464 38.0162 34.9038ZM36.1557 31.6963C36.481 32.2097 35.6135 33.3433 34.2172 34.2294C32.821 35.1139 31.4248 35.4156 31.0995 34.9021C30.7741 34.3887 31.6417 33.2534 33.0396 32.3689C34.4341 31.4844 35.8304 31.1828 36.1557 31.6963ZM34.629 29.1427C35.0475 29.5833 34.4155 30.8643 33.2175 32.0029C32.0195 33.1416 30.708 33.7093 30.2878 33.267C29.8693 32.8264 30.5013 31.5454 31.6993 30.4068C32.899 29.2681 34.2105 28.7005 34.629 29.1427ZM32.7719 26.1774C33.2412 26.4943 32.838 27.9109 31.8704 29.341C30.9046 30.7711 29.7405 31.6725 29.2712 31.3557C28.8018 31.0388 29.2051 29.6223 30.1726 28.1921C31.1384 26.762 32.3025 25.8606 32.7719 26.1774ZM30.4437 25.4929C30.9131 25.8098 30.6098 27.0772 29.7676 28.3243C28.9255 29.5714 27.8614 30.3254 27.392 30.0069C26.9227 29.69 27.226 28.4226 28.0681 27.1755C28.9102 25.9301 29.9744 25.176 30.4437 25.4929ZM28.3833 23.4934C28.8984 23.7273 28.8137 25.0269 28.1935 26.3977C27.5733 27.7685 26.6515 28.692 26.1364 28.4582C25.6213 28.2243 25.706 26.9247 26.3262 25.5539C26.9464 24.1831 27.8682 23.2613 28.3833 23.4934ZM26.2584 22.3209C26.7735 22.5547 26.7295 23.7679 26.1585 25.0303C25.5874 26.2927 24.7063 27.128 24.1895 26.8942C23.6744 26.6604 23.7185 25.4471 24.2895 24.1848C24.8622 22.9224 25.7433 22.0888 26.2584 22.3209ZM24.1743 21.3703C24.6809 21.5991 24.6707 22.7191 24.1505 23.8696C23.6304 25.0201 22.7967 25.7674 22.29 25.5369C21.7834 25.3082 21.7936 24.1899 22.3138 23.0376C22.834 21.8871 23.6676 21.1399 24.1743 21.3703Z" fill="#A6D388"/>
<path d="M21.7819 20.4012C22.3275 20.508 22.5732 21.5992 22.3309 22.8395C22.0886 24.0782 21.4481 24.9965 20.9025 24.8898C20.3568 24.783 20.1111 23.6918 20.3535 22.4515C20.5958 21.2112 21.2363 20.2945 21.7819 20.4012ZM19.1894 20.0284C19.657 20.0081 20.0722 20.8655 20.1179 21.9415C20.162 23.0174 19.8197 23.9036 19.3503 23.924C18.8827 23.9426 18.4675 23.0869 18.4218 22.0109C18.3777 20.9367 18.72 20.0488 19.1894 20.0284ZM34.2343 40.904L34.1632 40.9023C33.9245 40.8837 33.7029 40.7712 33.547 40.5896C33.391 40.4079 33.3134 40.1718 33.3312 39.9331C33.7074 34.9548 38.1282 26.7503 48.3846 25.9217C48.6231 25.9026 48.8593 25.979 49.0414 26.1341C49.2234 26.2891 49.3365 26.5102 49.3556 26.7486C49.3747 26.987 49.2983 27.2232 49.1432 27.4053C48.9881 27.5874 48.7671 27.7004 48.5287 27.7195C38.2925 28.5447 35.3527 37.1288 35.1307 40.0703C35.114 40.2967 35.0124 40.5085 34.8461 40.6631C34.6799 40.8177 34.4614 40.9037 34.2343 40.904Z" fill="#A6D388"/>
<path d="M33.8194 38.0945C33.8059 38.7825 35.4444 39.3755 37.4811 39.4179C39.5178 39.4602 41.1818 38.9383 41.1953 38.2504C41.2089 37.5625 39.5704 36.9711 37.5319 36.927C35.4969 36.883 33.8347 37.4066 33.8194 38.0945ZM35.4732 35.1479C35.3749 35.7308 36.7999 36.456 38.6554 36.7661C40.5091 37.0761 42.0934 36.8559 42.19 36.2713C42.2883 35.6884 40.8632 34.9632 39.0078 34.6531C37.1541 34.343 35.5715 34.565 35.4732 35.1479ZM37.1151 33.3077C37.027 33.8296 38.1979 34.4616 39.7313 34.7175C41.2631 34.9733 42.5763 34.7581 42.6627 34.2363C42.7491 33.7144 41.5783 33.0823 40.0465 32.8265C38.5147 32.5706 37.2015 32.7858 37.1151 33.3077ZM39.7279 31.0795C39.5331 31.5726 40.3786 32.3673 41.6156 32.8553C42.8525 33.3433 44.0115 33.3399 44.2064 32.8468C44.4012 32.3537 43.5557 31.559 42.3188 31.071C41.0835 30.583 39.9228 30.5881 39.7279 31.0795ZM41.7088 29.5291C41.5054 30.0425 42.4475 30.8965 43.8116 31.4336C45.1756 31.9708 46.4464 31.9928 46.6481 31.4777C46.8514 30.9643 45.9093 30.112 44.5453 29.5731C43.1829 29.0343 41.9121 29.014 41.7088 29.5291Z" fill="#A6D388"/>
<path d="M44.0759 28.5596C43.8946 29.0171 44.7537 29.7864 45.994 30.2744C47.2344 30.7641 48.3866 30.7895 48.5662 30.332C48.7475 29.8745 47.8884 29.107 46.6481 28.6173C45.4077 28.1276 44.2555 28.1021 44.0759 28.5596ZM47.1293 27.7023C46.9717 28.1038 47.6885 28.7613 48.7305 29.173C49.7726 29.5848 50.7469 29.5933 50.9045 29.1917C51.0621 28.7901 50.3454 28.1326 49.3033 27.7209C48.2612 27.3091 47.2869 27.3007 47.1293 27.7023Z" fill="#A6D388"/>
<path d="M49.1895 27.1077C49.1878 27.538 50.096 27.8922 51.216 27.8956C52.336 27.899 53.2476 27.5533 53.2476 27.1229C53.2493 26.6925 52.3411 26.3401 51.2211 26.335C50.1011 26.3316 49.1911 26.6773 49.1895 27.1077Z" fill="#C6E5B3"/>
<path d="M48.7106 26.7062C49.0021 27.0248 49.9086 26.6672 50.7338 25.9098C51.5607 25.1524 51.9944 24.2815 51.703 23.9629C51.4116 23.6444 50.505 24.0019 49.6798 24.7593C48.8529 25.5167 48.4192 26.3877 48.7106 26.7062ZM27.9418 34.9565C27.6334 35.5715 28.806 36.7848 30.5614 37.6676C32.3169 38.5504 33.991 38.7673 34.2994 38.1522C34.6078 37.5371 33.4352 36.3239 31.6798 35.4411C29.9243 34.5583 28.2502 34.3414 27.9418 34.9565Z" fill="#C6E5B3"/>
<path d="M30.2954 32.4673C29.8904 32.9214 30.5648 34.1804 31.7984 35.2801C33.0319 36.3798 34.3621 36.9034 34.767 36.4492C35.172 35.9951 34.4976 34.7345 33.2641 33.6348C32.0305 32.5351 30.7004 32.0132 30.2954 32.4673ZM31.6797 29.5512C31.1951 29.9189 31.6103 31.2846 32.61 32.6029C33.608 33.9211 34.8111 34.6921 35.2957 34.3244C35.7803 33.9567 35.3635 32.591 34.3654 31.2727C33.3657 29.9544 32.1644 29.1835 31.6797 29.5512ZM33.9927 26.9265C33.4792 27.1637 33.647 28.626 34.3705 30.1934C35.0924 31.7607 36.0955 32.8401 36.6089 32.6029C37.1223 32.3656 36.9546 30.9033 36.231 29.336C35.5092 27.7686 34.5061 26.6893 33.9927 26.9265ZM36.4005 26.6283C35.8871 26.8655 35.9802 28.1651 36.6106 29.5325C37.2409 30.8999 38.1678 31.8149 38.6812 31.5777C39.1946 31.3405 39.1014 30.0409 38.4711 28.6751C37.8424 27.3077 36.9156 26.391 36.4005 26.6283ZM38.7574 24.988C38.2101 25.1354 38.0831 26.4317 38.4745 27.8855C38.8642 29.3394 39.6233 30.3984 40.1706 30.251C40.7179 30.1036 40.845 28.8073 40.4536 27.3535C40.0639 25.9013 39.3031 24.8423 38.7574 24.988ZM41.0433 24.1764C40.4959 24.3238 40.3451 25.5269 40.7044 26.8655C41.0636 28.2041 41.799 29.1699 42.3446 29.0242C42.8919 28.8768 43.0427 27.6737 42.6835 26.3351C42.3259 24.9948 41.5906 24.029 41.0433 24.1764ZM43.2545 23.5732C42.7174 23.7172 42.5462 24.8237 42.8733 26.042C43.2003 27.2603 43.9018 28.1329 44.4389 27.9889C44.9761 27.8449 45.1472 26.7384 44.8202 25.5201C44.4931 24.3018 43.7916 23.4291 43.2545 23.5732Z" fill="#C6E5B3"/>
<path d="M45.7716 23.0051C45.2158 23.022 44.7956 24.059 44.8345 25.3214C44.8735 26.5838 45.3564 27.592 45.9122 27.575C46.468 27.5581 46.8882 26.5211 46.8475 25.2587C46.8069 23.9963 46.3273 22.9881 45.7716 23.0051ZM48.3912 23.0576C47.932 22.9627 47.3847 23.7405 47.1661 24.7944C46.9475 25.8484 47.1424 26.7803 47.6016 26.8752C48.0608 26.9701 48.6081 26.1923 48.8267 25.1384C49.0452 24.0845 48.8504 23.1525 48.3912 23.0576Z" fill="#C6E5B3"/>
<path d="M30.4998 38.0079C19.4876 38.0079 10.5596 35.9474 10.5596 33.4058V40.2361C10.5596 43.7927 19.596 46.675 30.4998 46.675C41.4052 46.675 50.44 43.791 50.44 40.2361V33.4058C50.44 35.9491 41.512 38.0079 30.4998 38.0079Z" fill="#C1694F"/>
</g>
<defs>
<clipPath id="clip0_405_227">
<rect width="61" height="61" fill="white"/>
</clipPath>
</defs>
</svg>
